<svg id="Layer_1" data-name="Layer 1" xmlns="http://www.w3.org/2000/svg" viewBox="0 0 256.12 319.53"><defs><style>.cls-1{fill:none;stroke:#ffda78;stroke-miterlimit:10;stroke-width:16px;}.cls-2{fill:#ffda78;}</style></defs><circle class="cls-1" cx="57.07" cy="266.71" r="44.83"/><circle class="cls-1" cx="196.95" cy="266.71" r="44.83"/><path class="cls-2" d="M326.62,219.45,344.57,43.8a183.57,183.57,0,0,1-27.86,1.8c-19.88,0-36-2.19-36-4.91s16.12-4.9,36-4.9,36,2.19,36,4.9c0,1.14-2.8,2.17-7.51,3l18,175.76Z" transform="translate(-107.05 -35.79)"/><path class="cls-2" d="M363.17,224.07v7a7.23,7.23,0,0,1-2.32,5.19c-8.05,12.33-36.14,21.43-69.58,21.43a156.72,156.72,0,0,1-40.41-5V253l-.87-.46-.46-.24a81,81,0,0,1-15.91-6.2c-14.88-4.43-33.92-7.09-54.68-7.09-29.46,0-55.47,5.36-71,13.53l-.87.46v-7a7.23,7.23,0,0,1,2.32-5.19c8-12.32,36.15-21.42,69.58-21.42a156.22,156.22,0,0,1,41.25,5.18.36.36,0,0,1,0-.09l.45.23A81.62,81.62,0,0,1,236.6,231c14.88,4.42,33.92,7.08,54.68,7.08,29.46,0,55.47-5.35,71-13.52Z" transform="translate(-107.05 -35.79)"/></svg>