<?xml version="1.0" encoding="utf-8"?>
<!-- Generator: Adobe Illustrator 25.0.1, SVG Export Plug-In . SVG Version: 6.00 Build 0)  -->
<svg version="1.1" id="Layer_1" xmlns="http://www.w3.org/2000/svg" xmlns:xlink="http://www.w3.org/1999/xlink" x="0px" y="0px"
	 viewBox="0 0 470.22 383.11" style="enable-background:new 0 0 470.22 383.11;" xml:space="preserve">
<style type="text/css">
	.st0{fill:none;stroke:#B1E0E2;stroke-width:16;stroke-miterlimit:10;}
	.st1{fill:#B1E0E2;}
</style>
<circle class="st0" cx="164.12" cy="302.5" r="44.83"/>
<circle class="st0" cx="304" cy="302.5" r="44.83"/>
<path class="st1" d="M326.62,219.45L344.57,43.8c-6.6,1.1-16.63,1.8-27.86,1.8c-19.88,0-36-2.19-36-4.91c0-2.71,16.12-4.91,36-4.91
	s36,2.19,36,4.91c0,1.14-2.8,2.17-7.51,3l17.97,175.76H326.62z"/>
<path class="st1" d="M363.17,224.07v6.98c0,1.97-0.87,3.78-2.32,5.19c-8.05,12.33-36.14,21.43-69.58,21.43
	c-14.99,0-28.9-1.83-40.41-4.96v0.33c-0.29-0.16-0.58-0.32-0.87-0.46c-0.15-0.08-0.3-0.15-0.45-0.24
	c-6.08-1.73-11.45-3.82-15.91-6.2c-14.88-4.43-33.92-7.08-54.68-7.08c-29.47,0-55.48,5.35-71.02,13.52
	c-0.29,0.15-0.58,0.3-0.87,0.46v-6.99c0-1.97,0.87-3.77,2.32-5.19c8.05-12.32,36.14-21.42,69.58-21.42
	c15.35,0,29.57,1.92,41.25,5.18c0.01-0.03,0.03-0.07,0.04-0.1c0.15,0.08,0.3,0.15,0.45,0.23c6.08,1.73,11.45,3.83,15.91,6.21
	c14.88,4.42,33.92,7.08,54.68,7.08c29.47,0,55.48-5.35,71.02-13.52C362.59,224.39,362.88,224.23,363.17,224.07z"/>
</svg>
