<?xml version="1.0" encoding="utf-8"?>
<!-- Generator: Adobe Illustrator 24.3.0, SVG Export Plug-In . SVG Version: 6.00 Build 0)  -->
<svg version="1.1" id="Layer_1" xmlns="http://www.w3.org/2000/svg" xmlns:xlink="http://www.w3.org/1999/xlink" x="0px" y="0px"
	 viewBox="0 0 471 345" style="enable-background:new 0 0 471 345;" xml:space="preserve">
<style type="text/css">
	.st0{fill:#F9ED32;}
	.st1{fill:#FFDD00;}
	.st2{fill:#97999C;}
	.st3{fill:#FFFFFF;}
</style>
<circle class="st0" cx="300" cy="167" r="112"/>
<path d="M398.6,144.8v21c0,8.9-4.7,16.7-11.7,21.1c-3.9,2.5-8.4,3.9-13.3,3.9h-37c-13.8,0-25-11.3-25-25v-3h-23.9v3
	c0,8.1-3.9,15.3-9.8,19.8c-4.2,3.2-9.5,5.2-15.2,5.2h-37c-13.8,0-25-11.3-25-25v-21h87v8h23.9v-8L398.6,144.8L398.6,144.8z"/>
<rect x="298.3" y="13.3" class="st1" width="5.4" height="33.8"/>
<rect x="283.8" y="301.1" transform="matrix(1.938699e-03 -1 1 1.938699e-03 -3.633 603.9224)" class="st1" width="33.8" height="5.4"/>
<rect x="274.5" y="15.4" transform="matrix(0.9848 -0.1736 0.1736 0.9848 -1.3971 48.6169)" class="st1" width="5.4" height="33.8"/>
<rect x="321.8" y="284.8" transform="matrix(0.9851 -0.1717 0.1717 0.9851 -46.9871 60.1917)" class="st1" width="5.4" height="33.8"/>
<rect x="251.5" y="21.5" transform="matrix(0.9397 -0.342 0.342 0.9397 2.186 89.2554)" class="st1" width="5.4" height="33.8"/>
<rect x="344.9" y="278.7" transform="matrix(0.9404 -0.3402 0.3402 0.9404 -79.83 135.8579)" class="st1" width="5.4" height="33.8"/>
<rect x="229.9" y="31.6" transform="matrix(0.866 -0.5 0.5 0.866 6.9303 122.7858)" class="st1" width="5.4" height="33.8"/>
<rect x="366.4" y="268.6" transform="matrix(0.867 -0.4983 0.4983 0.867 -93.1835 221.9114)" class="st1" width="5.4" height="33.8"/>
<rect x="210.4" y="45.2" transform="matrix(0.766 -0.6428 0.6428 0.766 9.9192 151.4754)" class="st1" width="5.4" height="33.8"/>
<rect x="386" y="255" transform="matrix(0.7673 -0.6413 0.6413 0.7673 -83.8963 312.5282)" class="st1" width="5.4" height="33.8"/>
<rect x="193.5" y="62.1" transform="matrix(0.6428 -0.766 0.766 0.6428 9.5612 178.471)" class="st1" width="5.4" height="33.8"/>
<rect x="402.9" y="238.1" transform="matrix(0.6443 -0.7648 0.7648 0.6443 -50.7752 400.8868)" class="st1" width="5.4" height="33.8"/>
<rect x="179.8" y="81.6" transform="matrix(0.5 -0.866 0.866 0.5 5.9338 207.2533)" class="st1" width="5.4" height="33.8"/>
<rect x="416.6" y="218.6" transform="matrix(0.5017 -0.8651 0.8651 0.5017 5.2282 480.0451)" class="st1" width="5.4" height="33.8"/>
<rect x="169.7" y="103.2" transform="matrix(0.342 -0.9397 0.9397 0.342 0.5872 240.9793)" class="st1" width="5.4" height="33.8"/>
<rect x="426.6" y="197" transform="matrix(0.3438 -0.939 0.939 0.3438 80.8576 543.4775)" class="st1" width="5.4" height="33.8"/>
<rect x="163.5" y="126.2" transform="matrix(0.1736 -0.9848 0.9848 0.1736 -3.5999 281.8892)" class="st1" width="5.4" height="33.8"/>
<rect x="432.9" y="174" transform="matrix(0.1756 -0.9845 0.9845 0.1756 171.1761 586.1573)" class="st1" width="5.4" height="33.8"/>
<rect x="147.2" y="164.2" class="st1" width="33.8" height="5.4"/>
<rect x="434.9" y="150.2" transform="matrix(1.938699e-03 -1 1 1.938699e-03 269.6643 604.4193)" class="st1" width="5.4" height="33.8"/>
<rect x="149.2" y="188" transform="matrix(0.9848 -0.1736 0.1736 0.9848 -30.5724 31.7355)" class="st1" width="33.8" height="5.4"/>
<rect x="418.7" y="140.7" transform="matrix(0.9851 -0.1717 0.1717 0.9851 -18.1545 76.9213)" class="st1" width="33.8" height="5.4"/>
<rect x="155.4" y="211" transform="matrix(0.9397 -0.342 0.342 0.9397 -62.68 71.8029)" class="st1" width="33.8" height="5.4"/>
<rect x="412.5" y="117.6" transform="matrix(0.9404 -0.3402 0.3402 0.9404 -15.3149 153.2623)" class="st1" width="33.8" height="5.4"/>
<rect x="165.4" y="232.6" transform="matrix(0.866 -0.5 0.5 0.866 -93.211 122.6793)" class="st1" width="33.8" height="5.4"/>
<rect x="402.5" y="96" transform="matrix(0.867 -0.4983 0.4983 0.867 6.5835 222.1057)" class="st1" width="33.8" height="5.4"/>
<rect x="179.1" y="252.1" transform="matrix(0.766 -0.6428 0.6428 0.766 -117.954 185.5822)" class="st1" width="33.8" height="5.4"/>
<rect x="388.8" y="76.5" transform="matrix(0.7673 -0.6413 0.6413 0.7673 43.6416 278.6045)" class="st1" width="33.8" height="5.4"/>
<rect x="196" y="269" transform="matrix(0.6428 -0.766 0.766 0.6428 -132.1142 260.0915)" class="st1" width="33.8" height="5.4"/>
<rect x="372" y="59.6" transform="matrix(0.6443 -0.7648 0.7648 0.6443 90.6878 319.5538)" class="st1" width="33.8" height="5.4"/>
<rect x="215.5" y="282.7" transform="matrix(0.5 -0.866 0.866 0.5 -130.9898 343.9084)" class="st1" width="33.8" height="5.4"/>
<rect x="352.4" y="45.9" transform="matrix(0.5017 -0.8651 0.8651 0.5017 142.0172 343.6997)" class="st1" width="33.8" height="5.4"/>
<rect x="237" y="292.8" transform="matrix(0.342 -0.9397 0.9397 0.342 -110.5875 433.0314)" class="st1" width="33.8" height="5.4"/>
<rect x="330.9" y="35.9" transform="matrix(0.3438 -0.939 0.939 0.3438 191.9927 351.829)" class="st1" width="33.8" height="5.4"/>
<rect x="260" y="299" transform="matrix(0.1736 -0.9848 0.9848 0.1736 -68.2693 522.05)" class="st1" width="33.8" height="5.4"/>
<rect x="307.8" y="29.6" transform="matrix(0.1756 -0.9845 0.9845 0.1756 235.9065 346.2937)" class="st1" width="33.8" height="5.4"/>
<path class="st2" d="M350.2,330.3H15.7c0-45.1,29-81.6,64.8-81.6c5.8,0,11.5,1,16.9,2.8c8.6-47.5,33.9-82,63.8-82
	c23.9,0,44.8,22,56.7,55c4.7-1.1,9.5-1.7,14.5-1.7c27,0,50.6,17.5,63.7,43.7c3.4-1.4,7-2.1,10.6-2.1
	C329.8,264.5,348.8,293.6,350.2,330.3z"/>
<path class="st3" d="M278.2,185.6c-4.2,3.2-9.5,5.2-15.2,5.2h-6.2l-38.6-46H244L278.2,185.6z"/>
<path class="st3" d="M387.2,186.9c-3.9,2.5-8.4,3.9-13.3,3.9h-9.1l-38.6-46h25.7L387.2,186.9z"/>
<path d="M279.2,264.5v21c0,8.9-4.7,16.7-11.7,21.1c-3.9,2.5-8.4,3.9-13.3,3.9h-37c-13.8,0-25-11.3-25-25v-3h-23.9v3
	c0,8.1-3.9,15.3-9.8,19.8c-4.2,3.2-9.5,5.2-15.2,5.2h-37c-13.8,0-25-11.3-25-25v-21h87v8h23.9v-8H279.2z"/>
<path class="st3" d="M158.9,305.3c-4.2,3.2-9.5,5.2-15.2,5.2h-6.2l-38.6-46h25.7L158.9,305.3z"/>
<path class="st3" d="M267.9,306.7c-3.9,2.5-8.4,3.9-13.3,3.9h-9.1l-38.6-46h25.7L267.9,306.7z"/>
</svg>
